<svg xmlns="http://www.w3.org/2000/svg" width="216" height="48" viewBox="0 0 216 48"><path fill="#FFF" d="M70.147 20.55c-2.415.905-4.04 1.225-6.162 1.225-5.964 0-10.33-4.19-10.33-9.947 0-5.61 4.365-9.973 9.98-9.973 2.003 0 3.46.29 5.115 1.076v-1.1h1.368v4.74H68.75V5.14c-1.77-1.306-3.082-1.8-4.944-1.8-4.215 0-7.27 3.432-7.27 8.2 0 3.694 1.456 6.28 4.393 7.822 1.1.58 2.26.9 3.34.9 1.422 0 2.613-.41 4.474-1.457v-1.918h1.396v3.663m19.665.844V20.32h-2.18V9.037h2.18V7.96h-6.57v1.077h2.15v4.97h-7.94v-4.97h2.18V7.96h-6.57v1.077h2.182V20.32h-2.18v1.075h6.57V20.32h-2.18v-5.146h7.938v5.146h-2.15v1.075h6.57zm9.73 0V20.32h-2.18V9.125h2.18V7.96h-6.57v1.165h2.18V20.32h-2.18v1.075h6.57zm13.453 0v-2.677h-1.05v1.514h-4.884V9.126h2.18V7.96h-6.57v1.165h2.176V20.32h-2.177v1.075h10.322zm8.99-1.163h-2.268V9.126h2.3c2.673 0 4.738 2.44 4.738 5.582 0 3.14-2.063 5.525-4.77 5.525zm-6.66.09v1.074h6.892c4.014 0 7.037-2.88 7.037-6.717 0-3.75-3.08-6.717-7.038-6.717h-6.894v1.08h2.18v11.28h-2.18zm46.907 1.074V20.32h-2.18V3.28h2.18V2.202h-4.535l-6.836 14.83-6.627-14.83h-4.685V3.28h2.207v17.04h-2.21v1.075h5.872V20.32H143.2V5.693l7.155 15.994 7.126-15.673V20.32h-2.18v1.075h6.92zm9.614 0V20.32h-2.18V9.125h2.18V7.96h-6.574v1.165h2.182V20.32h-2.183v1.075h6.575zm16.21.232v-12.5h2.18V7.96h-5.85v1.165h2.213v8.315l-8.17-9.48h-3.757v1.165h2.04l.58.756v10.44h-2.18v1.08h5.846v-1.08h-2.212v-8.574l8.435 9.884h.87zm11.45-1.395h-2.27V9.126h2.3c2.672 0 4.74 2.44 4.74 5.582-.005 3.14-2.068 5.525-4.77 5.525zm-6.66.09v1.074h6.89c4.016 0 7.04-2.88 7.04-6.717 0-3.75-3.085-6.717-7.04-6.717h-6.888v1.08h2.177v11.28h-2.176zM63.663 45.923V44.85h-2.18V27.81h2.18v-1.08H56.74v1.077h2.18v17.04h-2.18v1.074h6.922zm16.215.232v-12.5h2.183V32.49h-5.85v1.164h2.214v8.317l-8.17-9.48h-3.756v1.17h2.036l.583.756v10.44h-2.18v1.075h5.843v-1.08h-2.21v-8.58l8.434 9.887h.873zm5.664-.06v-.753c1.14.64 2.188.96 3.29.96 2.416 0 4.22-1.65 4.22-3.834 0-1.888-.7-2.818-3.2-4.216-.61-.35-1.31-.758-2.062-1.19-.99-.584-1.312-.99-1.312-1.75 0-1.19.905-1.945 2.27-1.945.785 0 1.31.144 2.443.756v1.05h1.075v-3.09H91.19v.727a5.307 5.307 0 0 0-2.647-.67c-2.325 0-4.16 1.66-4.16 3.755 0 1.713.875 2.73 3.434 4.012 2.413 1.22 3.198 1.977 3.198 3.082 0 1.132-1.047 1.946-2.5 1.946-.99 0-1.8-.26-2.966-.96v-1.39h-1.08V46.1h1.076zm21.15-13.607H94.948v2.674h1.044v-1.51h4.248v11.2h-2.472v1.075h7.153V44.85h-2.473V33.653h4.247v1.512h1.075V32.49h-1.075zm3.3 1.162h2.18v11.2h-2.18v1.072h6.57V44.85h-2.177V33.653h2.177V32.49h-6.567v1.164zm20.54-1.167h-11.75v2.676h1.05v-1.51h4.248v11.2h-2.47v1.074h7.15V44.85h-2.473V33.653h4.25v1.512h1.075V32.49h-1.077zm12.45 1.164h2.178v7.264c0 2.36-1.565 4.048-3.75 4.048-2.122 0-3.546-1.63-3.546-4.01v-7.3h2.21v-1.16h-6.604v1.164h2.213v7.91c0 2.733 2.268 4.737 5.38 4.737 3.315 0 5.584-2.15 5.584-5.29v-7.356h2.18V32.49h-5.844v1.164zm19.37-1.166H150.6v2.677h1.05v-1.51h4.243v11.2h-2.472v1.074h7.158v-1.07H158.1V33.653h4.248v1.512h1.076V32.49h-1.076zm12.63 12.276h-4.94v-5.09h3.72v1.454h1.07v-4.04l-1.07.03v1.395h-3.72V33.65h4.768v1.512h1.046V32.49H165.65v1.074h2.18V44.85h-2.18v1.074h10.407v-2.702h-1.074v1.54z"/><path fill="#CED4D1" d="M6.565 45.78c1.022-1.88 1.928-3.888 2.003-6.71.06-2.255-.758-4.324-2.313-6.323C2.618 28.09-.01 24.722 0 18.227c.006-4.45 1.903-9.01 5.206-12.51C8.676 2.042 13.39 0 17.95 0c7.442 0 13.035 4.057 15.454 9.335 1.13 2.463 1.67 5.27 1.024 7.447.172.295.763 1.418 1.008 1.918 1.073 2.2 3.225 3.34 3.225 5.21 0 1.153-.96 1.663-.96 1.663-.287.228-1.277.557-1.277.878 0 .5.79 1.19.77 1.988-.01.41-.184 1.147-1.226 1.63.605.477 1.26 1.04.64 2.254-.638 1.245-.08 1.51-.295 2.58-.25 1.225-.7 1.94-1.61 2.543-.885.588-2.064.914-3.32.918 0 0-2.036-.114-3.176.398-.936.42-1.47 1.13-1.734 2.283-.194.864-.21 2.373-.21 2.4 2.795.173 5.35.722 7.597 1.63l.007.004a.61.61 0 0 1 .337.793c-.092.23-.316.408-.563.38-.263-.03-4.147-1.743-9.39-1.65-7.555.133-13.506 2.18-15.645 3.236-.233.113-.996.378-1.68-.156a1.524 1.524 0 0 1-.354-1.896M17.95 1.22c-4.397 0-8.608 1.895-11.857 5.337-3.1 3.284-4.875 7.537-4.874 11.67.01 6.06 2.26 8.964 5.99 13.77 1.71 2.19 2.58 4.57 2.57 7.072-.014 3.54-1.712 6.35-2.14 7.27-.063.137-.094.29.013.373.185.144.436 0 .532-.044 3.694-1.74 9.38-2.845 12.7-3.14 2.452-.218 4.14-.15 4.14-.15 0-1 .083-1.898.24-2.613.32-1.48 1.183-2.595 2.434-3.13 1.05-.46 2.156-.5 3.11-.507 0 0 2.063.145 3.2-.71.653-.486 1.004-.84 1.086-1.75.06-.64-.085-1.133-.025-1.55.16-1.092.566-1.455.556-1.685-.004-.115-.815-.778-1.3-.86-.057-.01-.568-.098-.587-.61a.605.605 0 0 1 .483-.61s1.59-.363 1.714-.803c.073-.255-.077-.463-.24-.712-.36-.55-.515-1.03-.503-1.41a1.51 1.51 0 0 1 .627-1.19c.856-.633 1.628-.66 1.618-1.333-.01-.683-.57-1.26-1.24-2.03-.73-.832-2.358-3.277-2.4-3.685-.625 1.076-1.92 1.815-3.274 1.797-2.57-.038-3.215-1.978-3.18-2.97.046-1.22 1.01-2.86 3.15-2.83.936.014 1.985.283 2.945 1.244.027-.25.46-3.047-1.85-6.92-2.74-4.59-7.79-7.294-13.64-7.294zm12.54 14.195c-1.382.016-1.893.89-1.912 1.702.014.482.232 1.64 1.952 1.65 1.38.01 2.13-.784 2.554-1.836-.568-.82-1.28-1.5-2.594-1.51z"/><path fill="#62C8D3" d="M16.754 37.95c-3.097.102-5.823-1.567-5.868-1.593-.326-.19-.308-.637-.31-.953 0-.485-.016-1.15-.036-1.325-.22-1.91-1.45-4-3.653-6.2-3.11-3.09-4.26-5.75-4.247-9.83.01-5.8 4.984-12.273 12.106-12.29 4.25 0 7.955 1.994 9.914 5.334.91 1.55 1.392 3.127 1.394 4.563 0 .507-.06.982-.182 1.413.383.72.778 1.55 1.188 2.1.847 1.137 1.64 1.7 1.64 2.687 0 1.21-1.437 1.446-1.497 1.662-.025.23.508.88.51 1.363.002.285-.132.778-.746 1.107.07.06.546.42.52.9-.017.343-.207.72-.23.756-.256.405-.105.994-.105 1.224 0 .965-.4 1.594-1.15 2.116-.45.316-.973.465-1.507.568-.655.125-1.642-.002-2.266.363-.34.197-.87.604-.33 2.267.12.37.192.73.2 1.12.01.547-.253 1.068-.743 1.466-.38.32-1.885 1.178-4.61 1.178m-5.18-2.34a10.373 10.373 0 0 0 5.18 1.35c2.493-.04 3.775-.775 3.972-.945.35-.306.376-.48.39-.707.02-.302-.438-1.687-.424-2.372.016-.805.38-1.506 1.046-1.873.508-.29 1.162-.43 1.996-.43.66 0 1.283-.17 1.72-.46.48-.33.703-.74.707-1.293 0-.095-.14-1.023.19-1.624.113-.21.135-.31.145-.34-.393-.41-.85-.513-.852-.514a.497.497 0 0 1-.02-.975c.007 0 1.063-.24 1.1-.536.02-.167-1.022-1.16-.22-2.06.4-.448 1.213-.544 1.213-.95 0-.33-.244-.677-.47-.923-1.363-1.477-1.89-2.75-1.89-2.75-.57.755-1.18 1.09-2.184 1.116-1.806.047-2.21-1.48-2.21-2.012 0-.53.34-1.975 2.174-2.04.76-.027 1.447.3 1.92.73.006-.112.132-2.202-1.248-4.4-1.96-3.117-5.17-4.843-9.056-4.843-2.92 0-5.72 1.26-7.88 3.548-2.06 2.18-3.24 5.008-3.24 7.753.01 3.853 1.01 6.155 3.958 9.12 2.364 2.365 3.687 4.648 3.934 6.786.046.38.047 1.545.052 1.646zm10.38-18.3c0 .27.163 1.13 1.535 1 .85-.08 1.238-.976 1.295-1.11-.36-.514-.76-.885-1.47-.93-1.176-.078-1.36.772-1.36 1.04z"/><path fill="#D0D339" d="M20.757 18.99c-.185-.225-.566-.634-.883-1.304a7.023 7.023 0 0 0-.238-.452c.067-.26.1-.55.102-.852 0-.902-.302-1.89-.87-2.86-1.225-2.087-3.538-3.332-6.187-3.332-4.432.015-7.54 4.05-7.542 7.66-.01 2.505.73 4.217 2.64 6.112 1.085 1.082 1.79 2.036 2.113 2.83.274.67.227 1.783.227 1.783-.005.328.068.438.228.554a7.323 7.323 0 0 0 3.72 1.02h.006c1.604 0 2.508-.51 2.75-.71.324-.27.51-.63.5-1-.006-.266-.07-.505-.13-.735-.052-.193-.136-.466-.13-.727.007-.3.097-.407.275-.52.28-.18.866-.17.866-.17.39 0 .957-.07 1.46-.406.487-.316.87-.884.73-1.782-.014-.088.03-.2.083-.32.01-.026.146-.28.15-.51.01-.463-.46-.55-.467-.554.18-.066.616-.206.605-.68-.01-.37-.3-.7-.31-.785.028-.02.34-.18.44-.243a.98.98 0 0 0 .48-.83c-.003-.604-.494-1.056-.61-1.195m-.263 1.265c-.028.043-.522.263-.68.44a.83.83 0 0 0-.212.47c-.07.364.294.795.31.87-.05.15-.894.09-.91.643-.012.41.546.37.756.637-.007.02-.273.5-.197 1.006.07.483-.148.73-.37.866a1.93 1.93 0 0 1-.99.262c-.54 0-.95.09-1.284.28-.444.24-.703.72-.703 1.25 0 .505.26 1.265.26 1.464 0 .65-1.712.862-2.406.862a6.49 6.49 0 0 1-3.11-.8s.068-1.186-.286-2.034c-.38-.91-1.12-1.933-2.3-3.11-1.8-1.82-2.382-3.16-2.392-5.516 0-1.655.71-3.36 1.96-4.676 1.303-1.38 3.004-2.14 4.75-2.14 2.33 0 4.38 1.09 5.457 2.913.472.8.736 1.635.753 2.36-.41-.29-.956-.334-1.066-.32-1.126 0-1.482.895-1.482 1.406 0 .48.318 1.357 1.5 1.38.002 0 .804.05 1.34-.59.346.73 1.035 1.47 1.08 1.518.196.235.307.434.23.55zm-1.662-2.93c-.035.08-.26.618-.787.673-.838.09-.933-.447-.933-.605 0-.16.08-.668.825-.633.35.017.653.22.892.567z"/><path fill="#FFF" d="M209.267 1.234c.625 0 1.225.154 1.8.46a3.35 3.35 0 0 1 1.352 1.324 3.59 3.59 0 0 1 .49 1.802c0 .625-.16 1.22-.487 1.787a3.41 3.41 0 0 1-1.347 1.325 3.712 3.712 0 0 1-3.63 0 3.404 3.404 0 0 1-1.347-1.325 3.56 3.56 0 0 1-.48-1.787c0-.627.163-1.228.49-1.802s.78-1.015 1.354-1.323a3.77 3.77 0 0 1 1.8-.46m.004.7c-.5 0-.98.124-1.44.372-.46.247-.824.6-1.09 1.063a2.87 2.87 0 0 0-.395 1.45c0 .503.13.983.388 1.44.26.454.62.81 1.083 1.066a2.963 2.963 0 0 0 2.915 0 2.78 2.78 0 0 0 1.084-1.067 2.85 2.85 0 0 0-.007-2.89 2.703 2.703 0 0 0-1.09-1.07 3.02 3.02 0 0 0-1.445-.37zm-1.65 4.805V2.933h.784c.736 0 1.148.004 1.237.01.26.022.462.073.61.152.145.08.266.2.362.365.097.164.146.345.146.546 0 .274-.094.51-.276.704-.182.194-.438.316-.768.363.117.044.207.09.27.143.064.05.152.15.262.292.025.038.12.19.282.463l.457.77h-.97l-.324-.62c-.217-.41-.4-.67-.54-.78a.877.877 0 0 0-.54-.16h-.207v1.56h-.786zm.784-2.163h.32c.453 0 .735-.016.843-.05a.484.484 0 0 0 .353-.473.465.465 0 0 0-.092-.284.5.5 0 0 0-.263-.177c-.115-.036-.395-.055-.842-.055h-.32v1.04z"/></svg>